HIERARCHY
ROOT Hips
{
	OFFSET 0.000000 0.000000 0.000000
	CHANNELS 6 Xposition Yposition Zposition Zrotation Yrotation Xrotation 
	JOINT LHipJoint
	{
		OFFSET 0.000000 0.000000 0.000000
		CHANNELS 3 Zrotation Yrotation Xrotation
		JOINT LeftUpLeg
		{
			OFFSET 1.363060 -1.794630 0.839290
			CHANNELS 3 Zrotation Yrotation Xrotation
			JOINT LeftLeg
			{
				OFFSET 2.448110 -6.726130 0.000000
				CHANNELS 3 Zrotation Yrotation Xrotation
				JOINT LeftFoot
				{
					OFFSET 2.562200 -7.039590 0.000000
					CHANNELS 3 Zrotation Yrotation Xrotation
					JOINT LeftToeBase
					{
						OFFSET 0.157640 -0.433110 2.322550
						CHANNELS 3 Zrotation Yrotation Xrotation
						End Site
						{
							OFFSET 0.000000 0.000000 0.000000
						}
					}
				}
			}
		}
	}
	JOINT RHipJoint
	{
		OFFSET 0.000000 0.000000 0.000000
		CHANNELS 3 Zrotation Yrotation Xrotation
		JOINT RightUpLeg
		{
			OFFSET -1.305520 -1.794630 0.839290
			CHANNELS 3 Zrotation Yrotation Xrotation
			JOINT RightLeg
			{
				OFFSET -2.542530 -6.985550 0.000000
				CHANNELS 3 Zrotation Yrotation Xrotation
				JOINT RightFoot
				{
					OFFSET -2.568260 -7.056230 0.000000
					CHANNELS 3 Zrotation Yrotation Xrotation
					JOINT RightToeBase
					{
						OFFSET -0.164730 -0.452590 2.363150
						CHANNELS 3 Zrotation Yrotation Xrotation
						End Site
						{
							OFFSET 0.000000 0.000000 0.000000
						}
					}
				}
			}
		}
	}
	JOINT LowerBack
	{
		OFFSET 0.000000 0.000000 0.000000
		CHANNELS 3 Zrotation Yrotation Xrotation
		JOINT Spine
		{
			OFFSET 0.028270 2.035590 -0.193380
			CHANNELS 3 Zrotation Yrotation Xrotation
			JOINT Spine1
			{
				OFFSET 0.056720 2.048850 -0.042750
				CHANNELS 3 Zrotation Yrotation Xrotation
				JOINT Neck
				{
					OFFSET 0.000000 0.000000 0.000000
					CHANNELS 3 Zrotation Yrotation Xrotation
					JOINT Neck1
					{
						OFFSET -0.054170 1.746240 0.172020
						CHANNELS 3 Zrotation Yrotation Xrotation
						JOINT Head
						{
							OFFSET 0.104070 1.761360 -0.123970
							CHANNELS 3 Zrotation Yrotation Xrotation
							End Site
							{
								OFFSET 0.000000 0.000000 0.000000
							}
						}
					}
				}
				JOINT LeftShoulder
				{
					OFFSET 0.000000 0.000000 0.000000
					CHANNELS 3 Zrotation Yrotation Xrotation
					JOINT LeftArm
					{
						OFFSET 3.362410 1.200890 -0.311210
						CHANNELS 3 Zrotation Yrotation Xrotation
						JOINT LeftForeArm
						{
							OFFSET 4.983000 -0.000000 -0.000000
							CHANNELS 3 Zrotation Yrotation Xrotation
							JOINT LeftHand
							{
								OFFSET 3.483560 -0.000000 -0.000000
								CHANNELS 3 Zrotation Yrotation Xrotation
								JOINT LeftFingerBase
								{
									OFFSET 0.000000 0.000000 0.000000
									CHANNELS 3 Zrotation Yrotation Xrotation
									JOINT LeftHandIndex1
									{
										OFFSET 0.715260 -0.000000 -0.000000
										CHANNELS 3 Zrotation Yrotation Xrotation
										End Site
										{
											OFFSET 0.000000 0.000000 0.000000
										}
									}
								}
								JOINT LThumb
								{
									OFFSET 0.000000 0.000000 0.000000
									CHANNELS 3 Zrotation Yrotation Xrotation
									End Site
									{
										OFFSET 0.000000 0.000000 0.000000
									}
								}
							}
						}
					}
				}
				JOINT RightShoulder
				{
					OFFSET 0.000000 0.000000 0.000000
					CHANNELS 3 Zrotation Yrotation Xrotation
					JOINT RightArm
					{
						OFFSET -3.136600 1.374050 -0.404650
						CHANNELS 3 Zrotation Yrotation Xrotation
						JOINT RightForeArm
						{
							OFFSET -5.241900 -0.000000 -0.000000
							CHANNELS 3 Zrotation Yrotation Xrotation
							JOINT RightHand
							{
								OFFSET -3.444170 -0.000000 -0.000000
								CHANNELS 3 Zrotation Yrotation Xrotation
								JOINT RightFingerBase
								{
									OFFSET 0.000000 0.000000 0.000000
									CHANNELS 3 Zrotation Yrotation Xrotation
									JOINT RightHandIndex1
									{
										OFFSET -0.622530 -0.000000 -0.000000
										CHANNELS 3 Zrotation Yrotation Xrotation
										End Site
										{
											OFFSET 0.000000 0.000000 0.000000
										}
									}
								}
								JOINT RThumb
								{
									OFFSET 0.000000 0.000000 0.000000
									CHANNELS 3 Zrotation Yrotation Xrotation
									End Site
									{
										OFFSET 0.000000 0.000000 0.000000
									}
								}
							}
						}
					}
				}
			}
		}
	}
}
MOTION
Frames: 12
Frame Time: 0.008333
9.664648 17.848092 49.508607 -176.075804 -0.125402 -176.992636 -1.664720 2.959142 1.551978 -14.048513 -25.620589 -5.188956 -1.824878 9.551289 26.974420 -4.412191 14.358820 -11.033557 0.439700 -4.254700 -11.794400 -3.551450 -2.771907 0.673202 25.487860 13.653047 -7.073956 1.769108 -8.761942 26.282356 4.503304 -16.652801 -11.438163 -0.124300 -2.272400 6.259100 -2.434317 1.489819 4.599442 -9.594347 1.424060 5.652603 -2.799886 0.600422 -9.964016 -10.321330 -4.251929 -13.521910 20.832166 -9.900898 25.576219 5.433500 -3.746100 9.653600 0.578147 -10.951039 2.303020 -90.987634 -14.437349 97.556457 105.319781 -56.252375 -81.030147 -1.989632 0.313220 -29.929199 -14.902613 -29.670911 7.019600 -7.125000 0.000000 0.000000 -24.850600 0.451100 27.379600 0.469328 11.995929 2.124924 93.858788 16.079335 90.269897 -22.814847 26.736506 -7.272934 1.021927 0.881118 12.327431 8.594994 -53.801084 -6.413000 7.125000 0.000000 0.000000 82.041300 -69.178900 -59.400800 
9.667363 17.847030 49.510731 -176.143945 -0.140299 -177.037832 -1.651971 2.935090 1.572834 -14.061931 -25.220579 -5.350911 -1.817795 9.552522 26.968653 -4.361824 14.207630 -10.713456 0.604700 -4.977700 -13.844900 -3.553082 -2.771456 0.673968 25.429887 13.605192 -7.097236 1.752760 -8.776899 26.333712 4.472102 -16.540342 -11.319369 -0.122900 -2.259600 6.223500 -2.586156 1.474717 4.654958 -9.567424 1.387961 5.722722 -2.722144 0.601793 -9.979222 -10.646970 -4.070399 -12.862015 21.253154 -9.618785 24.795128 5.613000 -3.661100 9.252500 0.592710 -10.998294 2.301125 -91.020285 -14.516448 97.342994 105.200467 -56.275081 -80.939354 -1.978425 0.364023 -29.640782 -15.508293 -29.402839 7.314100 -7.125000 0.000000 0.000000 -25.187800 0.651400 27.745200 0.477506 11.940820 2.110114 93.791273 16.076456 90.443661 -22.850900 26.781542 -7.294573 1.019507 0.879634 12.367285 8.754570 -53.882605 -6.553600 7.125000 0.000000 0.000000 82.328400 -69.141600 -59.641300 
9.668425 17.845496 49.512029 -176.191463 -0.179600 -177.143982 -1.640480 2.943361 1.595546 -14.126665 -25.063828 -5.348565 -1.811831 9.556563 26.987082 -4.312240 14.087701 -10.607591 0.708900 -5.381200 -14.999200 -3.547944 -2.779294 0.686308 25.397598 13.563899 -7.023402 1.739638 -8.779742 26.379461 4.424076 -16.401359 -11.322790 -0.136600 -2.382300 6.563400 -2.719193 1.427409 4.749010 -9.476446 1.323862 5.813168 -2.621290 0.577087 -10.022669 -10.593410 -4.199818 -13.284410 20.890915 -9.753945 25.277178 5.493800 -3.711000 9.495200 0.576543 -10.967731 2.292070 -91.109705 -14.550516 97.142765 105.106534 -56.290094 -80.847858 -1.981969 0.382740 -29.470226 -15.803439 -29.494847 7.498800 -7.125000 0.000000 0.000000 -25.328100 0.539100 27.991700 0.466120 11.970031 2.125940 93.658678 16.104141 90.694611 -22.908946 26.855253 -7.334295 1.013793 0.881364 12.161550 8.795337 -54.121597 -6.608000 7.125000 0.000000 0.000000 82.953500 -69.174200 -60.312400 
9.668189 17.843844 49.512855 -176.225654 -0.186680 -177.197949 -1.638573 2.945507 1.605957 -14.167090 -24.973778 -5.349843 -1.810201 9.559038 26.995405 -4.305500 14.069581 -10.562682 0.614000 -5.015000 -13.951400 -3.548773 -2.784999 0.690710 25.365209 13.547737 -6.984243 1.734490 -8.782878 26.404648 4.442139 -16.462614 -11.405923 -0.140600 -2.416600 6.658400 -2.745442 1.449894 4.801053 -9.498308 1.353702 5.873496 -2.624805 0.592591 -10.036336 -10.737744 -4.199752 -13.178033 21.007646 -9.765620 25.211402 5.555600 -3.727500 9.464300 0.587459 -10.971688 2.293712 -91.046699 -14.513051 97.309057 105.333680 -56.264747 -81.013776 -1.999441 0.313676 -29.932217 -15.044666 -29.894865 7.139800 -7.125000 0.000000 0.000000 -24.900400 0.229200 27.551300 0.462479 11.955926 2.121653 93.645642 16.137270 90.691075 -22.934817 26.889714 -7.355358 1.012452 0.882346 11.909378 8.487120 -54.362444 -6.367900 7.125000 0.000000 0.000000 83.412200 -69.322100 -60.964300 
9.668189 17.846322 49.513563 -176.257256 -0.201321 -177.112119 -1.645345 2.923754 1.589515 -14.146314 -24.939387 -5.467010 -1.806254 9.566788 26.996769 -4.311217 14.071132 -10.464995 0.563700 -4.808700 -13.363700 -3.551526 -2.770436 0.681080 25.314900 13.561732 -7.076279 1.739703 -8.787387 26.392193 4.495917 -16.619381 -11.456298 -0.132800 -2.348900 6.471000 -2.720087 1.464009 4.780752 -9.620466 1.366634 5.843118 -2.665922 0.592425 -10.021978 -10.752491 -4.237969 -13.367803 21.183036 -9.850593 25.264383 5.619800 -3.745400 9.536900 0.597097 -10.973550 2.299134 -90.980961 -14.452508 97.387902 105.407694 -56.247597 -81.097713 -1.992064 0.299144 -29.853885 -14.633132 -29.711779 6.873100 -7.125000 0.000000 0.000000 -24.707300 0.434000 27.193000 0.463399 11.959624 2.122646 93.752046 16.154799 90.575924 -22.909863 26.859289 -7.344596 1.022019 0.877033 11.838856 7.718054 -54.468083 -5.726000 7.125000 0.000000 0.000000 83.301900 -69.599700 -61.203100 
9.669251 17.849272 49.515687 -176.246770 -0.257960 -177.016007 -1.644918 2.894891 1.571201 -14.064145 -24.864470 -5.636708 -1.796256 9.578179 27.005980 -4.297038 14.018020 -10.297317 0.661700 -5.202600 -14.487400 -3.554090 -2.751772 0.671584 25.314919 13.615675 -7.159889 1.746721 -8.788223 26.373599 4.464379 -16.532852 -11.462535 -0.144300 -2.447700 6.744600 -2.699912 1.448446 4.785023 -9.692986 1.339241 5.800680 -2.690544 0.578363 -10.026229 -10.782841 -4.205183 -13.273405 21.415648 -9.842026 25.088094 5.699100 -3.738100 9.467900 0.603383 -10.987447 2.300836 -91.024619 -14.421156 97.267616 105.334086 -56.259966 -81.065559 -1.969181 0.361987 -29.439538 -15.257129 -29.205553 7.135300 -7.125000 0.000000 0.000000 -25.079700 0.858700 27.498700 0.471813 11.952234 2.118283 93.827617 16.155540 90.518734 -22.887221 26.826826 -7.322464 1.029814 0.875678 11.773404 7.293388 -54.170741 -5.346300 7.125000 0.000000 0.000000 82.309700 -69.689200 -60.316000 
9.670313 17.846204 49.520408 -176.217633 -0.293811 -177.062209 -1.639221 2.898329 1.578728 -14.025659 -24.776897 -5.670259 -1.788096 9.587403 27.027236 -4.286312 13.983591 -10.207919 0.761000 -5.571100 -15.544900 -3.561140 -2.746582 0.665436 25.365054 13.653053 -7.115002 1.745004 -8.785177 26.377946 4.417144 -16.397425 -11.425066 -0.172800 -2.677600 7.382300 -2.626244 1.447911 4.958955 -9.784916 1.339119 5.778884 -2.757471 0.568920 -10.125769 -10.531134 -4.257613 -13.375052 21.240441 -9.917069 25.175455 5.595500 -3.759500 9.512900 0.610524 -10.968809 2.303668 -90.999201 -14.347814 97.395217 105.668741 -56.231785 -81.336822 -1.964044 0.344082 -29.843673 -15.160952 -29.126085 7.067500 -7.125000 0.000000 0.000000 -25.040300 0.944600 27.404100 0.471481 11.962001 2.113573 93.948777 16.109445 90.337161 -22.868083 26.803476 -7.299002 1.027300 0.881339 11.808870 7.575955 -53.796553 -5.558800 7.125000 0.000000 0.000000 81.487100 -69.520200 -59.280200 
9.671139 17.841838 49.524302 -176.214298 -0.269018 -177.189802 -1.628652 2.916313 1.606703 -14.066610 -24.674723 -5.613998 -1.783417 9.592508 27.057143 -4.275694 13.963191 -10.220934 0.671300 -5.239500 -14.593000 -3.562137 -2.759406 0.672877 25.396038 13.626892 -7.028270 1.737611 -8.785508 26.393139 4.502387 -16.631502 -11.376236 -0.154700 -2.534600 6.985700 -2.679623 1.437176 5.115942 -9.739395 1.329269 5.897062 -2.730617 0.567697 -10.191609 -10.545268 -4.223320 -13.273420 21.167216 -9.823394 25.043841 5.571600 -3.728300 9.433600 0.609117 -10.975130 2.295550 -91.043051 -14.503116 97.308854 105.225561 -56.271169 -80.961436 -1.978005 0.350943 -29.632925 -15.272311 -29.392621 7.178200 -7.125000 0.000000 0.000000 -25.067900 0.681700 27.567000 0.467149 11.955588 2.108666 93.920195 16.156611 90.359788 -22.894059 26.834425 -7.307650 1.016281 0.889408 11.868478 8.400584 -53.652796 -6.240000 7.125000 0.000000 0.000000 81.562300 -69.212800 -58.964900 
9.672555 17.842310 49.525246 -176.220913 -0.245862 -177.229074 -1.634099 2.935665 1.607014 -14.126031 -24.867324 -5.477313 -1.790126 9.588695 27.059400 -4.354888 14.162134 -10.410935 0.546700 -4.736700 -13.159100 -3.560027 -2.770143 0.680383 25.400242 13.613250 -7.009462 1.735454 -8.788837 26.397375 4.577122 -16.841723 -11.368330 -0.126400 -2.292100 6.313600 -2.767343 1.447806 5.138384 -9.707569 1.339446 5.952047 -2.676001 0.578055 -10.195323 -10.556000 -4.245945 -13.312646 21.195821 -9.837474 24.975945 5.578800 -3.732400 9.420000 0.607713 -10.975530 2.296383 -91.042451 -14.525635 97.334534 105.493182 -56.251060 -81.166835 -1.984202 0.314349 -30.034790 -14.967413 -29.529484 7.030000 -7.125000 0.000000 0.000000 -24.897700 0.581000 27.382700 0.460245 11.950715 2.107481 93.864599 16.172051 90.454907 -22.943866 26.892680 -7.330632 1.007417 0.895984 11.783877 8.900397 -53.550238 -6.651200 7.125000 0.000000 0.000000 81.574600 -69.023100 -58.734900 
9.673263 17.845260 49.526308 -176.206881 -0.332185 -177.199710 -1.644550 2.941212 1.589288 -14.122527 -25.123262 -5.398298 -1.792772 9.586106 27.055439 -4.412163 14.302334 -10.531990 0.617200 -5.027800 -13.987900 -3.557826 -2.773175 0.688106 25.410452 13.589718 -7.040562 1.743038 -8.784426 26.381817 4.545988 -16.770857 -11.466145 -0.135700 -2.374300 6.541400 -2.772589 1.446187 5.106563 -9.732012 1.337678 5.986173 -2.680196 0.578953 -10.156680 -10.694406 -4.167596 -12.914020 21.473534 -9.737699 24.527486 5.682800 -3.710200 9.198500 0.626426 -11.003968 2.301083 -90.762108 -14.707265 97.435226 105.227598 -56.260898 -80.928377 -1.993659 0.323792 -29.930149 -15.054290 -29.771005 7.126000 -7.125000 0.000000 0.000000 -24.919200 0.340700 27.525000 0.461792 11.919551 2.095248 93.860008 16.173628 90.395621 -22.939909 26.887718 -7.328118 1.008322 0.895152 11.773789 8.867638 -53.556049 -6.623600 7.125000 0.000000 0.000000 81.570100 -69.035400 -58.746200 
9.672673 17.848446 49.528668 -176.145580 -0.422044 -177.147098 -1.631997 2.912582 1.584449 -13.971630 -24.900152 -5.627503 -1.776470 9.602995 27.079998 -4.343626 14.118640 -10.300105 0.764800 -5.584800 -15.584400 -3.561438 -2.757323 0.680742 25.478331 13.596610 -7.058717 1.756263 -8.771742 26.342132 4.535639 -16.762235 -11.556396 -0.149300 -2.489900 6.861600 -2.698181 1.444054 5.122852 -9.763508 1.342809 5.986540 -2.733132 0.576204 -10.161839 -10.602003 -4.248144 -13.040106 21.453100 -9.842245 24.542100 5.652900 -3.745100 9.238400 0.618891 -11.002405 2.299518 -91.025390 -14.668423 97.533426 105.325599 -56.262443 -81.040562 -1.985083 0.307592 -30.161287 -14.914213 -29.506255 6.995300 -7.125000 0.000000 0.000000 -24.872100 0.606600 27.335900 0.463203 11.930194 2.093461 93.930700 16.174747 90.117104 -22.880549 26.811340 -7.288677 1.013717 0.892780 11.979334 8.846237 -53.359531 -6.588500 7.125000 0.000000 0.000000 81.067100 -69.000200 -58.200200 
9.672555 17.850688 49.531028 -176.016479 -0.433786 -177.080437 -1.610904 2.878247 1.576484 -13.749075 -24.633386 -5.897328 -1.755626 9.623925 27.115397 -4.242387 13.861113 -10.058924 0.807600 -5.735200 -16.017900 -3.568588 -2.738555 0.663627 25.620040 13.642066 -7.066376 1.771962 -8.757740 26.282333 4.564406 -16.852697 -11.533444 -0.150500 -2.500100 6.889800 -2.569812 1.471537 5.170090 -9.750815 1.386416 5.906223 -2.806011 0.597178 -10.209086 -10.703557 -4.257977 -12.836601 21.563026 -9.885371 24.452293 5.698800 -3.780300 9.183300 0.624688 -11.008254 2.307483 -90.763797 -14.756557 97.807620 105.021453 -56.267540 -80.791483 -1.995853 0.284021 -30.467727 -14.671661 -29.686073 6.891400 -7.125000 0.000000 0.000000 -24.729500 0.451700 27.214800 0.469994 11.918059 2.088168 93.971677 16.152995 90.016288 -22.843413 26.765001 -7.262341 1.020024 0.890758 11.958095 8.505507 -53.157195 -6.286700 7.125000 0.000000 0.000000 80.369100 -69.068800 -57.596500 
